HIERARCHY
ROOT Hips
{
	OFFSET 0.00000 0.00000 0.00000
	CHANNELS 6 Xposition Yposition Zposition Zrotation Yrotation Xrotation 
	JOINT LHipJoint
	{
		OFFSET 0 0 0
		CHANNELS 3 Zrotation Yrotation Xrotation
		JOINT LeftHip
		{
			OFFSET 1.76014 -1.80163 0.38499
			CHANNELS 3 Zrotation Yrotation Xrotation
			JOINT LeftKnee
			{
				OFFSET 2.46817 -6.78126 0.00000
				CHANNELS 3 Zrotation Yrotation Xrotation
				JOINT LeftAnkle
				{
					OFFSET 2.79348 -7.67503 0.00000
					CHANNELS 3 Zrotation Yrotation Xrotation
					JOINT LeftToe
					{
						OFFSET 0.09421 -0.25885 1.91403
						CHANNELS 3 Zrotation Yrotation Xrotation
						End Site
						{
							OFFSET 0.00000 -0.00000 0.97975
						}
					}
				}
			}
		}
	}
	JOINT RHipJoint
	{
		OFFSET 0 0 0
		CHANNELS 3 Zrotation Yrotation Xrotation
		JOINT RightHip
		{
			OFFSET -1.77926 -1.80163 0.38499
			CHANNELS 3 Zrotation Yrotation Xrotation
			JOINT RightKnee
			{
				OFFSET -2.51996 -6.92353 0.00000
				CHANNELS 3 Zrotation Yrotation Xrotation
				JOINT RightAnkle
				{
					OFFSET -2.76109 -7.58603 0.00000
					CHANNELS 3 Zrotation Yrotation Xrotation
					JOINT RightToe
					{
						OFFSET -0.08067 -0.22163 1.86812
						CHANNELS 3 Zrotation Yrotation Xrotation
						End Site
						{
							OFFSET -0.00000 -0.00000 0.95558
						}
					}
				}
			}
		}
	}
	JOINT lowerback
	{
		OFFSET 0 0 0
		CHANNELS 3 Zrotation Yrotation Xrotation
		JOINT Chest
		{
			OFFSET 0.05537 1.92033 -0.03713
			CHANNELS 3 Zrotation Yrotation Xrotation
			JOINT Chest2
			{
				OFFSET 0.04452 1.90073 0.10860
				CHANNELS 3 Zrotation Yrotation Xrotation
				JOINT lowerneck
				{
					OFFSET 0 0 0
					CHANNELS 3 Zrotation Yrotation Xrotation
					JOINT Neck
					{
						OFFSET 0.00903 1.74649 0.02074
						CHANNELS 3 Zrotation Yrotation Xrotation
						JOINT Head
						{
							OFFSET -0.08608 1.67844 -0.12081
							CHANNELS 3 Zrotation Yrotation Xrotation
							End Site
							{
								OFFSET -0.03521 1.83380 -0.05059
							}
						}
					}
				}
				JOINT LeftCollar
				{
					OFFSET 0 0 0
					CHANNELS 3 Zrotation Yrotation Xrotation
					JOINT LeftShoulder
					{
						OFFSET 3.28197 0.84325 -0.19106
CHANNELS 3 Zrotation Xrotation Yrotation
						JOINT LeftElbow
						{
OFFSET 0 -5.243180 -0.000000
CHANNELS 3 Zrotation Xrotation Yrotation
							JOINT LeftWrist
							{
OFFSET 0 -2.989990 0.000000
CHANNELS 3 Zrotation Xrotation Yrotation
								JOINT lhand
								{
									OFFSET 0 0 0
CHANNELS 3 Zrotation Xrotation Yrotation
									JOINT LFingers
									{
OFFSET 0 -0.726740 0.000000
CHANNELS 3 Zrotation Xrotation Yrotation
										End Site
										{
OFFSET 0 -0.585920 0.000000
										}
									}
								}
								JOINT LThumb
								{
OFFSET 0 0.000000 0.000000
CHANNELS 3 Zrotation Xrotation Yrotation
									End Site
									{
OFFSET 0 -0.594870 0.594870
									}
								}
							}
						}
					}
				}
				JOINT RightCollar
				{
					OFFSET 0 0 0
					CHANNELS 3 Zrotation Yrotation Xrotation
					JOINT RightShoulder
					{
						OFFSET -3.30963 0.78377 0.14264
CHANNELS 3 Zrotation Xrotation Yrotation
						JOINT RightElbow
						{
OFFSET 0 -5.370450 0.000000
CHANNELS 3 Zrotation Xrotation Yrotation
							JOINT RightWrist
							{
OFFSET 0 -2.927920 0.000000
CHANNELS 3 Zrotation Xrotation Yrotation
								JOINT rhand
								{
									OFFSET 0 0 0
CHANNELS 3 Zrotation Xrotation Yrotation
									JOINT RFingers
									{
OFFSET 0 -0.784500 0.000000
CHANNELS 3 Zrotation Xrotation Yrotation
										End Site
										{
OFFSET 0 -0.632480 0.000000
										}
									}
								}
								JOINT RThumb
								{
OFFSET 0 0.000000 0.000000
CHANNELS 3 Zrotation Xrotation Yrotation
									End Site
									{
OFFSET 0 -0.642140 0.642140
									}
								}
							}
						}
					}
				}
			}
		}
	}
}
MOTION
Frames: 6
Frame Time: 0.008333333333333333
0.146100 18.265300 0.757200 1.112600 1.328400 27.330900 0.000000 0.000000 0.000000 -8.791800 -28.995500 -21.680300 0.292600 3.478300 9.613400 -1.810000 23.029000 -10.358900 0.363200 -3.871300 -10.715000 0.000000 0.000000 0.000000 3.987100 39.012700 -22.920500 -0.469200 -4.393100 12.185400 -2.587600 -20.299000 -42.752700 -5.109900 -13.506400 41.295100 7.829400 -0.471700 8.537200 5.091800 0.859300 -4.974600 0.948200 0.088800 -10.176400 2.778900 -4.199800 13.053700 -3.987700 -6.368200 -24.048400 -1.061100 -2.784700 -10.017500 0.000000 -0.000000 0.000000 8.598800 11.136400 -28.144900 152.758600 -38.408400 110.351300 2.514600 23.852900 -22.897800 0.000000 0.000000 0.000000 -7.125000 0.000000 0.000000 -26.416500 50.916400 4.096100 0.000000 -0.000000 0.000000 -15.047800 -8.329100 28.088600 -147.495000 -42.946100 -106.916400 10.426100 36.544800 2.757200 0.000000 0.000000 0.000000 7.125000 0.000000 -0.000000 28.841300 31.611900 10.680200
0.151932 18.263400 0.748203 1.067047 1.306954 27.371481 0.000000 0.000000 0.000000 -8.854995 -28.574540 -22.114141 0.314656 3.605908 9.970436 -1.735098 22.577719 -10.064364 0.422976 -4.174115 -11.567001 0.000000 0.000000 0.000000 3.940046 39.025508 -23.016694 -0.466335 -4.380207 12.148785 -2.561367 -20.377754 -42.705895 -5.090309 -13.484692 41.211179 7.697261 -0.422338 8.583340 5.008437 0.904423 -4.954836 0.922829 0.116299 -10.177441 2.719990 -4.216966 13.203284 -3.787303 -6.356356 -24.153256 -0.979258 -2.792468 -10.073969 0.000000 0.000000 0.000000 8.804758 11.062684 -28.334662 152.839901 -38.331464 110.401746 2.519513 23.916743 -23.309859 0.000000 0.000000 0.000000 -7.125000 0.000000 0.000000 -26.647520 51.284883 4.389644 0.000000 0.000000 0.000000 -14.949410 -8.189047 27.986191 -147.645221 -42.828229 -107.018647 10.155924 36.450982 2.683798 0.000000 0.000000 0.000000 7.125000 0.000000 0.000000 28.628303 31.564379 10.617964
0.163158 18.261103 0.739068 1.043922 1.347999 27.189775 0.000000 0.000000 0.000000 -9.093300 -28.104996 -22.240671 0.332856 3.707845 10.256046 -1.650366 22.057788 -9.823903 0.465358 -4.375129 -12.134642 0.000000 0.000000 0.000000 4.079076 39.003032 -22.907986 -0.482809 -4.455721 12.362415 -2.595527 -20.255805 -42.751084 -5.082825 -13.476413 41.179101 7.632437 -0.472789 8.779402 4.948646 0.835853 -4.842016 0.904345 0.087074 -10.169506 2.843449 -4.123676 13.173289 -4.036755 -6.258195 -24.122339 -1.100811 -2.730055 -10.066598 0.000000 0.000000 0.000000 8.798255 10.886013 -28.270466 152.694212 -38.469287 110.311220 2.612043 24.004916 -22.727657 0.000000 0.000000 0.000000 -7.125000 0.000000 0.000000 -26.231489 50.779651 3.971428 0.000000 0.000000 0.000000 -15.010541 -8.357894 27.950199 -147.726787 -42.763932 -107.074059 10.192799 36.223353 2.755883 0.000000 0.000000 0.000000 7.125000 0.000000 0.000000 28.675500 31.626260 10.590723
0.171092 18.255703 0.728111 1.283745 1.190196 27.183418 0.000000 0.000000 0.000000 -9.610929 -27.549256 -22.371920 0.329091 3.686748 10.197054 -1.575782 21.575351 -9.358881 0.527051 -4.652346 -12.919746 0.000000 0.000000 0.000000 3.691610 38.989269 -23.385317 -0.538751 -4.702987 13.063196 -2.697088 -19.750646 -42.772375 -5.145728 -13.546099 41.448537 7.104052 -0.452549 8.851714 4.832183 0.786925 -4.801308 1.078719 0.095077 -10.164954 2.560461 -4.040296 13.406173 -3.752343 -6.140505 -24.347277 -0.964074 -2.675134 -10.168038 0.000000 0.000000 0.000000 8.837481 10.726829 -28.263647 152.758508 -38.408487 110.351243 2.523021 24.095071 -22.819711 0.000000 0.000000 0.000000 -7.125000 0.000000 0.000000 -26.364816 50.847914 4.040541 0.000000 0.000000 0.000000 -15.038477 -8.374179 27.867229 -147.629101 -42.840878 -107.007633 9.970522 36.345672 2.794624 0.000000 0.000000 0.000000 7.125000 0.000000 0.000000 28.529159 31.675533 10.482929
0.177884 18.251134 0.713898 1.075218 1.303412 27.105178 0.000000 0.000000 0.000000 -9.644049 -26.664307 -23.226383 0.395142 4.035943 11.177816 -1.398078 20.419925 -9.270426 0.571371 -4.840545 -13.454422 0.000000 0.000000 0.000000 3.999468 38.896737 -23.308272 -0.531763 -4.672606 12.977141 -2.574964 -20.129101 -42.557149 -5.015609 -13.401277 40.889955 7.120945 -0.434720 9.014875 4.866953 0.829776 -4.740131 1.099576 0.116308 -10.193426 2.710791 -4.078560 13.294718 -4.070052 -6.237006 -24.198691 -1.090618 -2.700638 -10.113406 0.000000 0.000000 0.000000 8.829775 10.724983 -28.489549 152.785545 -38.382945 110.368017 2.867310 24.154077 -22.874317 0.000000 0.000000 0.000000 -7.125000 0.000000 0.000000 -26.079216 50.951647 4.060926 0.000000 0.000000 0.000000 -15.145469 -8.517061 27.573836 -147.435466 -42.992611 -106.875836 10.097663 36.400172 2.664199 0.000000 0.000000 0.000000 7.125000 0.000000 0.000000 28.581208 31.550788 10.606636
0.189060 18.244942 0.701198 1.261979 1.373221 27.104372 0.000000 0.000000 0.000000 -10.086576 -26.014031 -23.714094 0.423110 4.174578 11.568435 -1.255537 19.418056 -8.943563 0.584560 -4.895393 -13.610448 0.000000 0.000000 0.000000 3.763521 38.729740 -23.650133 -0.571633 -4.841905 13.458294 -2.621694 -19.874476 -42.548502 -5.017015 -13.402945 40.896272 6.900247 -0.440951 9.088523 4.731953 0.785229 -4.715236 1.083808 0.104358 -10.207550 2.495668 -3.980647 13.438878 -4.092859 -6.158897 -24.300515 -1.070076 -2.637346 -10.168588 0.000000 0.000000 0.000000 8.839029 10.627086 -28.465416 152.692621 -38.470714 110.310301 2.857626 24.395848 -22.835293 0.000000 0.000000 0.000000 -7.125000 0.000000 0.000000 -26.066261 50.915114 4.034314 0.000000 0.000000 0.000000 -15.066991 -8.461916 27.579846 -147.322479 -43.080686 -106.798700 9.901429 36.748676 2.589716 0.000000 0.000000 0.000000 7.125000 0.000000 0.000000 28.420205 31.497111 10.573463
